<mxfile host="app.diagrams.net" modified="2020-10-03T00:50:23.623Z" agent="5.0 (Macintosh; Intel Mac OS X 10_15_0) AppleWebKit/537.36 (KHTML, like Gecko) Chrome/85.0.4183.121 Safari/537.36" etag="sY_7uhgKAVE-SOvWX_u7" version="13.7.7" type="github">
  <diagram id="g-SlI8t8xjuwWKBPlSiQ" name="Page-1">
    <mxGraphModel dx="1113" dy="721" grid="1" gridSize="10" guides="1" tooltips="1" connect="1" arrows="1" fold="1" page="1" pageScale="1" pageWidth="827" pageHeight="1169" math="0" shadow="0">
      <root>
        <mxCell id="0" />
        <mxCell id="1" parent="0" />
        <UserObject label="1990" lucidchartObjectId="46bBe4kU5YJb" id="aDtvH_MtWNGt8Cx6V6dD-1">
          <mxCell style="html=1;whiteSpace=wrap;;whiteSpace=wrap;fontSize=13;fontColor=#333333;spacing=3;strokeOpacity=0;fillOpacity=0;rounded=1;absoluteArcSize=1;arcSize=7.199999999999999;fillColor=#ffffff;strokeWidth=2;" vertex="1" zOrder="7" parent="1">
            <mxGeometry x="1666" y="40" width="48" height="45" as="geometry" />
          </mxCell>
        </UserObject>
        <UserObject label="1991" lucidchartObjectId="g7bB0-YYNDfH" id="aDtvH_MtWNGt8Cx6V6dD-2">
          <mxCell style="html=1;whiteSpace=wrap;;whiteSpace=wrap;fontSize=13;fontColor=#333333;spacing=3;strokeOpacity=0;fillOpacity=0;rounded=1;absoluteArcSize=1;arcSize=7.199999999999999;fillColor=#ffffff;strokeWidth=2;" vertex="1" zOrder="8" parent="1">
            <mxGeometry x="1714" y="40" width="48" height="45" as="geometry" />
          </mxCell>
        </UserObject>
        <UserObject label="1992" lucidchartObjectId="i7bBLSe3EnEW" id="aDtvH_MtWNGt8Cx6V6dD-3">
          <mxCell style="html=1;whiteSpace=wrap;;whiteSpace=wrap;fontSize=13;fontColor=#333333;spacing=3;strokeOpacity=0;fillOpacity=0;rounded=1;absoluteArcSize=1;arcSize=7.199999999999999;fillColor=#ffffff;strokeWidth=2;" vertex="1" zOrder="9" parent="1">
            <mxGeometry x="1762" y="40" width="48" height="45" as="geometry" />
          </mxCell>
        </UserObject>
        <UserObject label="1993" lucidchartObjectId="L.bBaWiO0sUU" id="aDtvH_MtWNGt8Cx6V6dD-4">
          <mxCell style="html=1;whiteSpace=wrap;;whiteSpace=wrap;fontSize=13;fontColor=#333333;spacing=3;strokeOpacity=0;fillOpacity=0;rounded=1;absoluteArcSize=1;arcSize=7.199999999999999;fillColor=#ffffff;strokeWidth=2;" vertex="1" zOrder="14" parent="1">
            <mxGeometry x="1810" y="40" width="48" height="45" as="geometry" />
          </mxCell>
        </UserObject>
        <UserObject label="1994" lucidchartObjectId="N.bBbbFfWs4Q" id="aDtvH_MtWNGt8Cx6V6dD-5">
          <mxCell style="html=1;whiteSpace=wrap;;whiteSpace=wrap;fontSize=13;fontColor=#333333;spacing=3;strokeOpacity=0;fillOpacity=0;rounded=1;absoluteArcSize=1;arcSize=7.199999999999999;fillColor=#ffffff;strokeWidth=2;" vertex="1" zOrder="15" parent="1">
            <mxGeometry x="1858" y="40" width="48" height="45" as="geometry" />
          </mxCell>
        </UserObject>
        <UserObject label="1995" lucidchartObjectId="P.bBj_3vAEos" id="aDtvH_MtWNGt8Cx6V6dD-6">
          <mxCell style="html=1;whiteSpace=wrap;;whiteSpace=wrap;fontSize=13;fontColor=#333333;spacing=3;strokeOpacity=0;fillOpacity=0;rounded=1;absoluteArcSize=1;arcSize=7.199999999999999;fillColor=#ffffff;strokeWidth=2;" vertex="1" zOrder="16" parent="1">
            <mxGeometry x="1906" y="40" width="48" height="45" as="geometry" />
          </mxCell>
        </UserObject>
        <UserObject label="1996" lucidchartObjectId="Z.bBS5kpbSI." id="aDtvH_MtWNGt8Cx6V6dD-7">
          <mxCell style="html=1;whiteSpace=wrap;;whiteSpace=wrap;fontSize=13;fontColor=#333333;spacing=3;strokeOpacity=0;fillOpacity=0;rounded=1;absoluteArcSize=1;arcSize=7.199999999999999;fillColor=#ffffff;strokeWidth=2;" vertex="1" zOrder="17" parent="1">
            <mxGeometry x="1954" y="40" width="48" height="45" as="geometry" />
          </mxCell>
        </UserObject>
        <UserObject label="1997" lucidchartObjectId="1.bBFS_L_4pm" id="aDtvH_MtWNGt8Cx6V6dD-8">
          <mxCell style="html=1;whiteSpace=wrap;;whiteSpace=wrap;fontSize=13;fontColor=#333333;spacing=3;strokeOpacity=0;fillOpacity=0;rounded=1;absoluteArcSize=1;arcSize=7.199999999999999;fillColor=#ffffff;strokeWidth=2;" vertex="1" zOrder="18" parent="1">
            <mxGeometry x="2002" y="40" width="48" height="45" as="geometry" />
          </mxCell>
        </UserObject>
        <UserObject label="1998" lucidchartObjectId="2.bBSw11qK86" id="aDtvH_MtWNGt8Cx6V6dD-9">
          <mxCell style="html=1;whiteSpace=wrap;;whiteSpace=wrap;fontSize=13;fontColor=#333333;spacing=3;strokeOpacity=0;fillOpacity=0;rounded=1;absoluteArcSize=1;arcSize=7.199999999999999;fillColor=#ffffff;strokeWidth=2;" vertex="1" zOrder="19" parent="1">
            <mxGeometry x="2050" y="40" width="48" height="45" as="geometry" />
          </mxCell>
        </UserObject>
        <UserObject label="1999" lucidchartObjectId="3.bB1bm74RRZ" id="aDtvH_MtWNGt8Cx6V6dD-10">
          <mxCell style="html=1;whiteSpace=wrap;;whiteSpace=wrap;fontSize=13;fontColor=#333333;spacing=3;strokeOpacity=0;fillOpacity=0;rounded=1;absoluteArcSize=1;arcSize=7.199999999999999;fillColor=#ffffff;strokeWidth=2;" vertex="1" zOrder="20" parent="1">
            <mxGeometry x="2098" y="40" width="48" height="45" as="geometry" />
          </mxCell>
        </UserObject>
        <UserObject label="2000" lucidchartObjectId="5.bBSFzmXerH" id="aDtvH_MtWNGt8Cx6V6dD-11">
          <mxCell style="html=1;whiteSpace=wrap;;whiteSpace=wrap;fontSize=13;fontColor=#333333;spacing=3;strokeOpacity=0;fillOpacity=0;rounded=1;absoluteArcSize=1;arcSize=7.199999999999999;fillColor=#ffffff;strokeWidth=2;" vertex="1" zOrder="21" parent="1">
            <mxGeometry x="2146" y="40" width="48" height="45" as="geometry" />
          </mxCell>
        </UserObject>
        <UserObject label="2001" lucidchartObjectId="-hcB-K9dOje4" id="aDtvH_MtWNGt8Cx6V6dD-12">
          <mxCell style="html=1;whiteSpace=wrap;;whiteSpace=wrap;fontSize=13;fontColor=#333333;spacing=3;strokeOpacity=0;fillOpacity=0;rounded=1;absoluteArcSize=1;arcSize=7.199999999999999;fillColor=#ffffff;strokeWidth=2;" vertex="1" zOrder="22" parent="1">
            <mxGeometry x="2194" y="40" width="48" height="45" as="geometry" />
          </mxCell>
        </UserObject>
        <UserObject label="2002" lucidchartObjectId="~hcBxsFQs2Hw" id="aDtvH_MtWNGt8Cx6V6dD-13">
          <mxCell style="html=1;whiteSpace=wrap;;whiteSpace=wrap;fontSize=13;fontColor=#333333;spacing=3;strokeOpacity=0;fillOpacity=0;rounded=1;absoluteArcSize=1;arcSize=7.199999999999999;fillColor=#ffffff;strokeWidth=2;" vertex="1" zOrder="23" parent="1">
            <mxGeometry x="2242" y="40" width="48" height="45" as="geometry" />
          </mxCell>
        </UserObject>
        <UserObject label="2003" lucidchartObjectId="aicBmE_zdO_u" id="aDtvH_MtWNGt8Cx6V6dD-14">
          <mxCell style="html=1;whiteSpace=wrap;;whiteSpace=wrap;fontSize=13;fontColor=#333333;spacing=3;strokeOpacity=0;fillOpacity=0;rounded=1;absoluteArcSize=1;arcSize=7.199999999999999;fillColor=#ffffff;strokeWidth=2;" vertex="1" zOrder="24" parent="1">
            <mxGeometry x="2290" y="40" width="48" height="45" as="geometry" />
          </mxCell>
        </UserObject>
        <UserObject label="2004" lucidchartObjectId="cicBwhml-Xh_" id="aDtvH_MtWNGt8Cx6V6dD-15">
          <mxCell style="html=1;whiteSpace=wrap;;whiteSpace=wrap;fontSize=13;fontColor=#333333;spacing=3;strokeOpacity=0;fillOpacity=0;rounded=1;absoluteArcSize=1;arcSize=7.199999999999999;fillColor=#ffffff;strokeWidth=2;" vertex="1" zOrder="25" parent="1">
            <mxGeometry x="2338" y="40" width="48" height="45" as="geometry" />
          </mxCell>
        </UserObject>
        <UserObject label="2005" lucidchartObjectId="eicBm7NdHLkQ" id="aDtvH_MtWNGt8Cx6V6dD-16">
          <mxCell style="html=1;whiteSpace=wrap;;whiteSpace=wrap;fontSize=13;fontColor=#333333;spacing=3;strokeOpacity=0;fillOpacity=0;rounded=1;absoluteArcSize=1;arcSize=7.199999999999999;fillColor=#ffffff;strokeWidth=2;" vertex="1" zOrder="26" parent="1">
            <mxGeometry x="2386" y="40" width="48" height="45" as="geometry" />
          </mxCell>
        </UserObject>
        <UserObject label="2005" lucidchartObjectId="4ncBXIAmwHfi" id="aDtvH_MtWNGt8Cx6V6dD-17">
          <mxCell style="html=1;whiteSpace=wrap;;whiteSpace=wrap;fontSize=13;fontColor=#333333;spacing=3;strokeOpacity=0;fillOpacity=0;rounded=1;absoluteArcSize=1;arcSize=7.199999999999999;fillColor=#ffffff;strokeWidth=2;" vertex="1" zOrder="27" parent="1">
            <mxGeometry x="2434" y="40" width="48" height="45" as="geometry" />
          </mxCell>
        </UserObject>
        <UserObject label="2006" lucidchartObjectId="5ncBjiLI5oM2" id="aDtvH_MtWNGt8Cx6V6dD-18">
          <mxCell style="html=1;whiteSpace=wrap;;whiteSpace=wrap;fontSize=13;fontColor=#333333;spacing=3;strokeOpacity=0;fillOpacity=0;rounded=1;absoluteArcSize=1;arcSize=7.199999999999999;fillColor=#ffffff;strokeWidth=2;" vertex="1" zOrder="28" parent="1">
            <mxGeometry x="2482" y="40" width="48" height="45" as="geometry" />
          </mxCell>
        </UserObject>
        <UserObject label="2007" lucidchartObjectId="7ncB4ZGYRHyB" id="aDtvH_MtWNGt8Cx6V6dD-19">
          <mxCell style="html=1;whiteSpace=wrap;;whiteSpace=wrap;fontSize=13;fontColor=#333333;spacing=3;strokeOpacity=0;fillOpacity=0;rounded=1;absoluteArcSize=1;arcSize=7.199999999999999;fillColor=#ffffff;strokeWidth=2;" vertex="1" zOrder="29" parent="1">
            <mxGeometry x="2530" y="40" width="48" height="45" as="geometry" />
          </mxCell>
        </UserObject>
        <UserObject label="2008" lucidchartObjectId="-ncBmviSvYw2" id="aDtvH_MtWNGt8Cx6V6dD-20">
          <mxCell style="html=1;whiteSpace=wrap;;whiteSpace=wrap;fontSize=13;fontColor=#333333;spacing=3;strokeOpacity=0;fillOpacity=0;rounded=1;absoluteArcSize=1;arcSize=7.199999999999999;fillColor=#ffffff;strokeWidth=2;" vertex="1" zOrder="30" parent="1">
            <mxGeometry x="2578" y="40" width="48" height="45" as="geometry" />
          </mxCell>
        </UserObject>
        <UserObject label="2009" lucidchartObjectId=".ncBUlXIA6VW" id="aDtvH_MtWNGt8Cx6V6dD-21">
          <mxCell style="html=1;whiteSpace=wrap;;whiteSpace=wrap;fontSize=13;fontColor=#333333;spacing=3;strokeOpacity=0;fillOpacity=0;rounded=1;absoluteArcSize=1;arcSize=7.199999999999999;fillColor=#ffffff;strokeWidth=2;" vertex="1" zOrder="31" parent="1">
            <mxGeometry x="2626" y="40" width="48" height="45" as="geometry" />
          </mxCell>
        </UserObject>
        <UserObject label="2010" lucidchartObjectId="oocBfS7Mbza4" id="aDtvH_MtWNGt8Cx6V6dD-22">
          <mxCell style="html=1;whiteSpace=wrap;;whiteSpace=wrap;fontSize=13;fontColor=#333333;spacing=3;strokeOpacity=0;fillOpacity=0;rounded=1;absoluteArcSize=1;arcSize=7.199999999999999;fillColor=#ffffff;strokeWidth=2;" vertex="1" zOrder="32" parent="1">
            <mxGeometry x="2674" y="40" width="48" height="45" as="geometry" />
          </mxCell>
        </UserObject>
        <UserObject label="2011" lucidchartObjectId="uocBUjul7~ur" id="aDtvH_MtWNGt8Cx6V6dD-23">
          <mxCell style="html=1;whiteSpace=wrap;;whiteSpace=wrap;fontSize=13;fontColor=#333333;spacing=3;strokeOpacity=0;fillOpacity=0;rounded=1;absoluteArcSize=1;arcSize=7.199999999999999;fillColor=#ffffff;strokeWidth=2;" vertex="1" zOrder="33" parent="1">
            <mxGeometry x="2722" y="40" width="48" height="45" as="geometry" />
          </mxCell>
        </UserObject>
        <UserObject label="2012" lucidchartObjectId="vocB5.jjPj8-" id="aDtvH_MtWNGt8Cx6V6dD-24">
          <mxCell style="html=1;whiteSpace=wrap;;whiteSpace=wrap;fontSize=13;fontColor=#333333;spacing=3;strokeOpacity=0;fillOpacity=0;rounded=1;absoluteArcSize=1;arcSize=7.199999999999999;fillColor=#ffffff;strokeWidth=2;" vertex="1" zOrder="34" parent="1">
            <mxGeometry x="2770" y="40" width="48" height="45" as="geometry" />
          </mxCell>
        </UserObject>
        <UserObject label="2013" lucidchartObjectId="wocBY_UrYJYq" id="aDtvH_MtWNGt8Cx6V6dD-25">
          <mxCell style="html=1;whiteSpace=wrap;;whiteSpace=wrap;fontSize=13;fontColor=#333333;spacing=3;strokeOpacity=0;fillOpacity=0;rounded=1;absoluteArcSize=1;arcSize=7.199999999999999;fillColor=#ffffff;strokeWidth=2;" vertex="1" zOrder="35" parent="1">
            <mxGeometry x="2818" y="40" width="48" height="45" as="geometry" />
          </mxCell>
        </UserObject>
        <UserObject label="2014" lucidchartObjectId="yocBVMMaVW29" id="aDtvH_MtWNGt8Cx6V6dD-26">
          <mxCell style="html=1;whiteSpace=wrap;;whiteSpace=wrap;fontSize=13;fontColor=#333333;spacing=3;strokeOpacity=0;fillOpacity=0;rounded=1;absoluteArcSize=1;arcSize=7.199999999999999;fillColor=#ffffff;strokeWidth=2;" vertex="1" zOrder="36" parent="1">
            <mxGeometry x="2866" y="40" width="48" height="45" as="geometry" />
          </mxCell>
        </UserObject>
        <UserObject label="2015" lucidchartObjectId="AocBHv_4rbt2" id="aDtvH_MtWNGt8Cx6V6dD-27">
          <mxCell style="html=1;whiteSpace=wrap;;whiteSpace=wrap;fontSize=13;fontColor=#333333;spacing=3;strokeOpacity=0;fillOpacity=0;rounded=1;absoluteArcSize=1;arcSize=7.199999999999999;fillColor=#ffffff;strokeWidth=2;" vertex="1" zOrder="37" parent="1">
            <mxGeometry x="2914" y="40" width="48" height="45" as="geometry" />
          </mxCell>
        </UserObject>
        <UserObject label="2016" lucidchartObjectId="BocBiXIFS0uX" id="aDtvH_MtWNGt8Cx6V6dD-28">
          <mxCell style="html=1;whiteSpace=wrap;;whiteSpace=wrap;fontSize=13;fontColor=#333333;spacing=3;strokeOpacity=0;fillOpacity=0;rounded=1;absoluteArcSize=1;arcSize=7.199999999999999;fillColor=#ffffff;strokeWidth=2;" vertex="1" zOrder="38" parent="1">
            <mxGeometry x="2962" y="40" width="48" height="45" as="geometry" />
          </mxCell>
        </UserObject>
        <UserObject label="2017" lucidchartObjectId="GocB.2dLfquk" id="aDtvH_MtWNGt8Cx6V6dD-29">
          <mxCell style="html=1;whiteSpace=wrap;;whiteSpace=wrap;fontSize=13;fontColor=#333333;spacing=3;strokeOpacity=0;fillOpacity=0;rounded=1;absoluteArcSize=1;arcSize=7.199999999999999;fillColor=#ffffff;strokeWidth=2;" vertex="1" zOrder="39" parent="1">
            <mxGeometry x="3010" y="40" width="48" height="45" as="geometry" />
          </mxCell>
        </UserObject>
        <UserObject label="2018" lucidchartObjectId="JocBoe4Yhcae" id="aDtvH_MtWNGt8Cx6V6dD-30">
          <mxCell style="html=1;whiteSpace=wrap;;whiteSpace=wrap;fontSize=13;fontColor=#333333;spacing=3;strokeOpacity=0;fillOpacity=0;rounded=1;absoluteArcSize=1;arcSize=7.199999999999999;fillColor=#ffffff;strokeWidth=2;" vertex="1" zOrder="40" parent="1">
            <mxGeometry x="3058" y="40" width="48" height="45" as="geometry" />
          </mxCell>
        </UserObject>
        <UserObject label="2019" lucidchartObjectId="LocBVECmu_84" id="aDtvH_MtWNGt8Cx6V6dD-31">
          <mxCell style="html=1;whiteSpace=wrap;;whiteSpace=wrap;fontSize=13;fontColor=#333333;spacing=3;strokeOpacity=0;fillOpacity=0;rounded=1;absoluteArcSize=1;arcSize=7.199999999999999;fillColor=#ffffff;strokeWidth=2;" vertex="1" zOrder="41" parent="1">
            <mxGeometry x="3106" y="40" width="48" height="45" as="geometry" />
          </mxCell>
        </UserObject>
        <UserObject label="2020" lucidchartObjectId="hpcBMMpEIK7O" id="aDtvH_MtWNGt8Cx6V6dD-32">
          <mxCell style="html=1;whiteSpace=wrap;;whiteSpace=wrap;fontSize=13;fontColor=#333333;spacing=3;strokeOpacity=0;fillOpacity=0;rounded=1;absoluteArcSize=1;arcSize=7.199999999999999;fillColor=#ffffff;strokeWidth=2;" vertex="1" zOrder="43" parent="1">
            <mxGeometry x="3154" y="40" width="48" height="45" as="geometry" />
          </mxCell>
        </UserObject>
        <UserObject label="1989" lucidchartObjectId="ypcBnkA3FqvA" id="aDtvH_MtWNGt8Cx6V6dD-33">
          <mxCell style="html=1;whiteSpace=wrap;;whiteSpace=wrap;fontSize=13;fontColor=#333333;spacing=3;strokeOpacity=0;fillOpacity=0;rounded=1;absoluteArcSize=1;arcSize=7.199999999999999;fillColor=#ffffff;strokeWidth=2;" vertex="1" zOrder="44" parent="1">
            <mxGeometry x="1618" y="40" width="48" height="45" as="geometry" />
          </mxCell>
        </UserObject>
        <UserObject label="1988" lucidchartObjectId="WpcBo86QfP3p" id="aDtvH_MtWNGt8Cx6V6dD-34">
          <mxCell style="html=1;whiteSpace=wrap;;whiteSpace=wrap;fontSize=13;fontColor=#333333;spacing=3;strokeOpacity=0;fillOpacity=0;rounded=1;absoluteArcSize=1;arcSize=7.199999999999999;fillColor=#ffffff;strokeWidth=2;" vertex="1" zOrder="45" parent="1">
            <mxGeometry x="1570" y="40" width="48" height="45" as="geometry" />
          </mxCell>
        </UserObject>
        <UserObject label="1987" lucidchartObjectId="XpcBG4Wm5GoH" id="aDtvH_MtWNGt8Cx6V6dD-35">
          <mxCell style="html=1;whiteSpace=wrap;;whiteSpace=wrap;fontSize=13;fontColor=#333333;spacing=3;strokeOpacity=0;fillOpacity=0;rounded=1;absoluteArcSize=1;arcSize=7.199999999999999;fillColor=#ffffff;strokeWidth=2;" vertex="1" zOrder="46" parent="1">
            <mxGeometry x="1522" y="40" width="48" height="45" as="geometry" />
          </mxCell>
        </UserObject>
        <UserObject label="1986" lucidchartObjectId="RqcBJtADev5t" id="aDtvH_MtWNGt8Cx6V6dD-36">
          <mxCell style="html=1;whiteSpace=wrap;;whiteSpace=wrap;fontSize=13;fontColor=#333333;spacing=3;strokeOpacity=0;fillOpacity=0;rounded=1;absoluteArcSize=1;arcSize=7.199999999999999;fillColor=#ffffff;strokeWidth=2;" vertex="1" zOrder="47" parent="1">
            <mxGeometry x="1474" y="40" width="48" height="45" as="geometry" />
          </mxCell>
        </UserObject>
        <UserObject label="1985" lucidchartObjectId="TqcByGCr4g4-" id="aDtvH_MtWNGt8Cx6V6dD-37">
          <mxCell style="html=1;whiteSpace=wrap;;whiteSpace=wrap;fontSize=13;fontColor=#333333;spacing=3;strokeOpacity=0;fillOpacity=0;rounded=1;absoluteArcSize=1;arcSize=7.199999999999999;fillColor=#ffffff;strokeWidth=2;" vertex="1" zOrder="48" parent="1">
            <mxGeometry x="1426" y="40" width="48" height="45" as="geometry" />
          </mxCell>
        </UserObject>
        <UserObject label="1984" lucidchartObjectId="UqcBU1VROHIV" id="aDtvH_MtWNGt8Cx6V6dD-38">
          <mxCell style="html=1;whiteSpace=wrap;;whiteSpace=wrap;fontSize=13;fontColor=#333333;spacing=3;strokeOpacity=0;fillOpacity=0;rounded=1;absoluteArcSize=1;arcSize=7.199999999999999;fillColor=#ffffff;strokeWidth=2;" vertex="1" zOrder="49" parent="1">
            <mxGeometry x="1378" y="40" width="48" height="45" as="geometry" />
          </mxCell>
        </UserObject>
        <UserObject label="1983" lucidchartObjectId="VqcBmyt3DZi8" id="aDtvH_MtWNGt8Cx6V6dD-39">
          <mxCell style="html=1;whiteSpace=wrap;;whiteSpace=wrap;fontSize=13;fontColor=#333333;spacing=3;strokeOpacity=0;fillOpacity=0;rounded=1;absoluteArcSize=1;arcSize=7.199999999999999;fillColor=#ffffff;strokeWidth=2;" vertex="1" zOrder="50" parent="1">
            <mxGeometry x="1330" y="40" width="48" height="45" as="geometry" />
          </mxCell>
        </UserObject>
        <UserObject label="1982" lucidchartObjectId="arcBI5tgjjtF" id="aDtvH_MtWNGt8Cx6V6dD-40">
          <mxCell style="html=1;whiteSpace=wrap;;whiteSpace=wrap;fontSize=13;fontColor=#333333;spacing=3;strokeOpacity=0;fillOpacity=0;rounded=1;absoluteArcSize=1;arcSize=7.199999999999999;fillColor=#ffffff;strokeWidth=2;" vertex="1" zOrder="51" parent="1">
            <mxGeometry x="1282" y="40" width="48" height="45" as="geometry" />
          </mxCell>
        </UserObject>
        <UserObject label="1981" lucidchartObjectId="brcB04m-hwZe" id="aDtvH_MtWNGt8Cx6V6dD-41">
          <mxCell style="html=1;whiteSpace=wrap;;whiteSpace=wrap;fontSize=13;fontColor=#333333;spacing=3;strokeOpacity=0;fillOpacity=0;rounded=1;absoluteArcSize=1;arcSize=7.199999999999999;fillColor=#ffffff;strokeWidth=2;" vertex="1" zOrder="52" parent="1">
            <mxGeometry x="1234" y="40" width="48" height="45" as="geometry" />
          </mxCell>
        </UserObject>
        <UserObject label="1980" lucidchartObjectId="crcBTvQSm5nX" id="aDtvH_MtWNGt8Cx6V6dD-42">
          <mxCell style="html=1;whiteSpace=wrap;;whiteSpace=wrap;fontSize=13;fontColor=#333333;spacing=3;strokeOpacity=0;fillOpacity=0;rounded=1;absoluteArcSize=1;arcSize=7.199999999999999;fillColor=#ffffff;strokeWidth=2;" vertex="1" zOrder="53" parent="1">
            <mxGeometry x="1186" y="40" width="48" height="45" as="geometry" />
          </mxCell>
        </UserObject>
        <UserObject label="1979" lucidchartObjectId="nrcBHq_9m46p" id="aDtvH_MtWNGt8Cx6V6dD-43">
          <mxCell style="html=1;whiteSpace=wrap;;whiteSpace=wrap;fontSize=13;fontColor=#333333;spacing=3;strokeOpacity=0;fillOpacity=0;rounded=1;absoluteArcSize=1;arcSize=7.199999999999999;fillColor=#ffffff;strokeWidth=2;" vertex="1" zOrder="54" parent="1">
            <mxGeometry x="1138" y="40" width="48" height="45" as="geometry" />
          </mxCell>
        </UserObject>
        <UserObject label="1978" lucidchartObjectId="wrcBboCPj~y3" id="aDtvH_MtWNGt8Cx6V6dD-44">
          <mxCell style="html=1;whiteSpace=wrap;;whiteSpace=wrap;fontSize=13;fontColor=#333333;spacing=3;strokeOpacity=0;fillOpacity=0;rounded=1;absoluteArcSize=1;arcSize=7.199999999999999;fillColor=#ffffff;strokeWidth=2;" vertex="1" zOrder="55" parent="1">
            <mxGeometry x="1090" y="40" width="48" height="45" as="geometry" />
          </mxCell>
        </UserObject>
        <UserObject label="1977" lucidchartObjectId="xrcBoEdCCTDy" id="aDtvH_MtWNGt8Cx6V6dD-45">
          <mxCell style="html=1;whiteSpace=wrap;;whiteSpace=wrap;fontSize=13;fontColor=#333333;spacing=3;strokeOpacity=0;fillOpacity=0;rounded=1;absoluteArcSize=1;arcSize=7.199999999999999;fillColor=#ffffff;strokeWidth=2;" vertex="1" zOrder="56" parent="1">
            <mxGeometry x="1042" y="40" width="48" height="45" as="geometry" />
          </mxCell>
        </UserObject>
        <UserObject label="1976" lucidchartObjectId="ArcBx8FHhiE9" id="aDtvH_MtWNGt8Cx6V6dD-46">
          <mxCell style="html=1;whiteSpace=wrap;;whiteSpace=wrap;fontSize=13;fontColor=#333333;spacing=3;strokeOpacity=0;fillOpacity=0;rounded=1;absoluteArcSize=1;arcSize=7.199999999999999;fillColor=#ffffff;strokeWidth=2;" vertex="1" zOrder="57" parent="1">
            <mxGeometry x="994" y="40" width="48" height="45" as="geometry" />
          </mxCell>
        </UserObject>
        <UserObject label="1975" lucidchartObjectId="BrcBKt5kCIWf" id="aDtvH_MtWNGt8Cx6V6dD-47">
          <mxCell style="html=1;whiteSpace=wrap;;whiteSpace=wrap;fontSize=13;fontColor=#333333;spacing=3;strokeOpacity=0;fillOpacity=0;rounded=1;absoluteArcSize=1;arcSize=7.199999999999999;fillColor=#ffffff;strokeWidth=2;" vertex="1" zOrder="58" parent="1">
            <mxGeometry x="946" y="40" width="48" height="45" as="geometry" />
          </mxCell>
        </UserObject>
        <UserObject label="1974" lucidchartObjectId="CrcBY~13qwE9" id="aDtvH_MtWNGt8Cx6V6dD-48">
          <mxCell style="html=1;whiteSpace=wrap;;whiteSpace=wrap;fontSize=13;fontColor=#333333;spacing=3;strokeOpacity=0;fillOpacity=0;rounded=1;absoluteArcSize=1;arcSize=7.199999999999999;fillColor=#ffffff;strokeWidth=2;" vertex="1" zOrder="59" parent="1">
            <mxGeometry x="898" y="40" width="48" height="45" as="geometry" />
          </mxCell>
        </UserObject>
        <UserObject label="1973" lucidchartObjectId="GrcByPExK02M" id="aDtvH_MtWNGt8Cx6V6dD-49">
          <mxCell style="html=1;whiteSpace=wrap;;whiteSpace=wrap;fontSize=13;fontColor=#333333;spacing=3;strokeOpacity=0;fillOpacity=0;rounded=1;absoluteArcSize=1;arcSize=7.199999999999999;fillColor=#ffffff;strokeWidth=2;" vertex="1" zOrder="60" parent="1">
            <mxGeometry x="850" y="40" width="48" height="45" as="geometry" />
          </mxCell>
        </UserObject>
        <UserObject label="1972" lucidchartObjectId="HrcBPSH2Hugu" id="aDtvH_MtWNGt8Cx6V6dD-50">
          <mxCell style="html=1;whiteSpace=wrap;;whiteSpace=wrap;fontSize=13;fontColor=#333333;spacing=3;strokeOpacity=0;fillOpacity=0;rounded=1;absoluteArcSize=1;arcSize=7.199999999999999;fillColor=#ffffff;strokeWidth=2;" vertex="1" zOrder="61" parent="1">
            <mxGeometry x="802" y="40" width="48" height="45" as="geometry" />
          </mxCell>
        </UserObject>
        <UserObject label="1971" lucidchartObjectId="IrcBdlnhWvWR" id="aDtvH_MtWNGt8Cx6V6dD-51">
          <mxCell style="html=1;whiteSpace=wrap;;whiteSpace=wrap;fontSize=13;fontColor=#333333;spacing=3;strokeOpacity=0;fillOpacity=0;rounded=1;absoluteArcSize=1;arcSize=7.199999999999999;fillColor=#ffffff;strokeWidth=2;" vertex="1" zOrder="62" parent="1">
            <mxGeometry x="754" y="40" width="48" height="45" as="geometry" />
          </mxCell>
        </UserObject>
        <UserObject label="1970" lucidchartObjectId="KrcBuQqfkRON" id="aDtvH_MtWNGt8Cx6V6dD-52">
          <mxCell style="html=1;whiteSpace=wrap;;whiteSpace=wrap;fontSize=13;fontColor=#333333;spacing=3;strokeOpacity=0;fillOpacity=0;rounded=1;absoluteArcSize=1;arcSize=7.199999999999999;fillColor=#ffffff;strokeWidth=2;" vertex="1" zOrder="63" parent="1">
            <mxGeometry x="706" y="40" width="48" height="45" as="geometry" />
          </mxCell>
        </UserObject>
        <UserObject label="1969" lucidchartObjectId="LrcBZEKW5KkU" id="aDtvH_MtWNGt8Cx6V6dD-53">
          <mxCell style="html=1;whiteSpace=wrap;;whiteSpace=wrap;fontSize=13;fontColor=#333333;spacing=3;strokeOpacity=0;fillOpacity=0;rounded=1;absoluteArcSize=1;arcSize=7.199999999999999;fillColor=#ffffff;strokeWidth=2;" vertex="1" zOrder="64" parent="1">
            <mxGeometry x="658" y="40" width="48" height="45" as="geometry" />
          </mxCell>
        </UserObject>
        <UserObject label="1968" lucidchartObjectId="dscBpOZ0kg~y" id="aDtvH_MtWNGt8Cx6V6dD-54">
          <mxCell style="html=1;whiteSpace=wrap;;whiteSpace=wrap;fontSize=13;fontColor=#333333;spacing=3;strokeOpacity=0;fillOpacity=0;rounded=1;absoluteArcSize=1;arcSize=7.199999999999999;fillColor=#ffffff;strokeWidth=2;" vertex="1" zOrder="65" parent="1">
            <mxGeometry x="610" y="40" width="48" height="45" as="geometry" />
          </mxCell>
        </UserObject>
        <UserObject label="1058" lucidchartObjectId="cicBwhml-Xh_" id="aDtvH_MtWNGt8Cx6V6dD-78">
          <mxCell style="html=1;whiteSpace=wrap;;whiteSpace=wrap;fontSize=13;fontColor=#333333;spacing=3;strokeOpacity=0;fillOpacity=0;rounded=1;absoluteArcSize=1;arcSize=7.199999999999999;fillColor=#ffffff;strokeWidth=2;" vertex="1" zOrder="25" parent="1">
            <mxGeometry x="130" y="40" width="48" height="45" as="geometry" />
          </mxCell>
        </UserObject>
        <UserObject label="1059" lucidchartObjectId="eicBm7NdHLkQ" id="aDtvH_MtWNGt8Cx6V6dD-79">
          <mxCell style="html=1;whiteSpace=wrap;;whiteSpace=wrap;fontSize=13;fontColor=#333333;spacing=3;strokeOpacity=0;fillOpacity=0;rounded=1;absoluteArcSize=1;arcSize=7.199999999999999;fillColor=#ffffff;strokeWidth=2;" vertex="1" zOrder="26" parent="1">
            <mxGeometry x="178" y="40" width="48" height="45" as="geometry" />
          </mxCell>
        </UserObject>
        <UserObject label="1060" lucidchartObjectId="4ncBXIAmwHfi" id="aDtvH_MtWNGt8Cx6V6dD-80">
          <mxCell style="html=1;whiteSpace=wrap;;whiteSpace=wrap;fontSize=13;fontColor=#333333;spacing=3;strokeOpacity=0;fillOpacity=0;rounded=1;absoluteArcSize=1;arcSize=7.199999999999999;fillColor=#ffffff;strokeWidth=2;" vertex="1" zOrder="27" parent="1">
            <mxGeometry x="226" y="40" width="48" height="45" as="geometry" />
          </mxCell>
        </UserObject>
        <UserObject label="1061" lucidchartObjectId="5ncBjiLI5oM2" id="aDtvH_MtWNGt8Cx6V6dD-81">
          <mxCell style="html=1;whiteSpace=wrap;;whiteSpace=wrap;fontSize=13;fontColor=#333333;spacing=3;strokeOpacity=0;fillOpacity=0;rounded=1;absoluteArcSize=1;arcSize=7.199999999999999;fillColor=#ffffff;strokeWidth=2;" vertex="1" zOrder="28" parent="1">
            <mxGeometry x="274" y="40" width="48" height="45" as="geometry" />
          </mxCell>
        </UserObject>
        <UserObject label="1062" lucidchartObjectId="7ncB4ZGYRHyB" id="aDtvH_MtWNGt8Cx6V6dD-82">
          <mxCell style="html=1;whiteSpace=wrap;;whiteSpace=wrap;fontSize=13;fontColor=#333333;spacing=3;strokeOpacity=0;fillOpacity=0;rounded=1;absoluteArcSize=1;arcSize=7.199999999999999;fillColor=#ffffff;strokeWidth=2;" vertex="1" zOrder="29" parent="1">
            <mxGeometry x="322" y="40" width="48" height="45" as="geometry" />
          </mxCell>
        </UserObject>
        <UserObject label="1063" lucidchartObjectId="-ncBmviSvYw2" id="aDtvH_MtWNGt8Cx6V6dD-83">
          <mxCell style="html=1;whiteSpace=wrap;;whiteSpace=wrap;fontSize=13;fontColor=#333333;spacing=3;strokeOpacity=0;fillOpacity=0;rounded=1;absoluteArcSize=1;arcSize=7.199999999999999;fillColor=#ffffff;strokeWidth=2;" vertex="1" zOrder="30" parent="1">
            <mxGeometry x="370" y="40" width="48" height="45" as="geometry" />
          </mxCell>
        </UserObject>
        <UserObject label="1064" lucidchartObjectId=".ncBUlXIA6VW" id="aDtvH_MtWNGt8Cx6V6dD-84">
          <mxCell style="html=1;whiteSpace=wrap;;whiteSpace=wrap;fontSize=13;fontColor=#333333;spacing=3;strokeOpacity=0;fillOpacity=0;rounded=1;absoluteArcSize=1;arcSize=7.199999999999999;fillColor=#ffffff;strokeWidth=2;" vertex="1" zOrder="31" parent="1">
            <mxGeometry x="418" y="40" width="48" height="45" as="geometry" />
          </mxCell>
        </UserObject>
        <UserObject label="1065" lucidchartObjectId="oocBfS7Mbza4" id="aDtvH_MtWNGt8Cx6V6dD-85">
          <mxCell style="html=1;whiteSpace=wrap;;whiteSpace=wrap;fontSize=13;fontColor=#333333;spacing=3;strokeOpacity=0;fillOpacity=0;rounded=1;absoluteArcSize=1;arcSize=7.199999999999999;fillColor=#ffffff;strokeWidth=2;" vertex="1" zOrder="32" parent="1">
            <mxGeometry x="466" y="40" width="48" height="45" as="geometry" />
          </mxCell>
        </UserObject>
        <UserObject label="1066" lucidchartObjectId="uocBUjul7~ur" id="aDtvH_MtWNGt8Cx6V6dD-86">
          <mxCell style="html=1;whiteSpace=wrap;;whiteSpace=wrap;fontSize=13;fontColor=#333333;spacing=3;strokeOpacity=0;fillOpacity=0;rounded=1;absoluteArcSize=1;arcSize=7.199999999999999;fillColor=#ffffff;strokeWidth=2;" vertex="1" zOrder="33" parent="1">
            <mxGeometry x="514" y="40" width="48" height="45" as="geometry" />
          </mxCell>
        </UserObject>
        <UserObject label="1067" lucidchartObjectId="vocB5.jjPj8-" id="aDtvH_MtWNGt8Cx6V6dD-87">
          <mxCell style="html=1;whiteSpace=wrap;;whiteSpace=wrap;fontSize=13;fontColor=#333333;spacing=3;strokeOpacity=0;fillOpacity=0;rounded=1;absoluteArcSize=1;arcSize=7.199999999999999;fillColor=#ffffff;strokeWidth=2;" vertex="1" zOrder="34" parent="1">
            <mxGeometry x="562" y="40" width="48" height="45" as="geometry" />
          </mxCell>
        </UserObject>
        <UserObject label="1058" lucidchartObjectId="cicBwhml-Xh_" id="aDtvH_MtWNGt8Cx6V6dD-90">
          <mxCell style="html=1;whiteSpace=wrap;;whiteSpace=wrap;fontSize=13;fontColor=#333333;spacing=3;strokeOpacity=0;fillOpacity=0;rounded=1;absoluteArcSize=1;arcSize=7.199999999999999;fillColor=#ffffff;strokeWidth=2;" vertex="1" zOrder="25" parent="1">
            <mxGeometry x="82" y="40" width="48" height="45" as="geometry" />
          </mxCell>
        </UserObject>
        <UserObject label="1058" lucidchartObjectId="cicBwhml-Xh_" id="aDtvH_MtWNGt8Cx6V6dD-91">
          <mxCell style="html=1;whiteSpace=wrap;;whiteSpace=wrap;fontSize=13;fontColor=#333333;spacing=3;strokeOpacity=0;fillOpacity=0;rounded=1;absoluteArcSize=1;arcSize=7.199999999999999;fillColor=#ffffff;strokeWidth=2;" vertex="1" zOrder="25" parent="1">
            <mxGeometry x="34" y="40" width="48" height="45" as="geometry" />
          </mxCell>
        </UserObject>
      </root>
    </mxGraphModel>
  </diagram>
</mxfile>
